<?xml version="1.0" standalone="no"?>
<svg version="1.1" preserveAspectRatio="none" viewBox="0 0 24 24" class="ng-element" data-id="fd9a832ee39c61c35f20859785bb6561" fill="#FF5722" style="width: 42px; height: 42px;" xmlns="http://www.w3.org/2000/svg"><g><path xmlns:default="http://www.w3.org/2000/svg" id="home" d="M18,13.01L18,13.01l-6-5l-6,5v5c0.01,0.37,0.3,0.66,0.67,0.67h4v-4h2.67v4h4c0.36-0.01,0.65-0.31,0.66-0.67V13.01  L18,13.01z M20.32,12.29c0.05-0.07,0.08-0.15,0.07-0.24c0-0.09-0.04-0.17-0.11-0.22L18,9.94V5.7c0.01-0.18-0.13-0.32-0.31-0.33  c-0.01,0-0.01,0-0.02,0h-2c-0.18-0.01-0.32,0.13-0.33,0.31c0,0.01,0,0.01,0,0.02v2l-2.55-2.1c-0.47-0.36-1.11-0.36-1.58,0  l-7.49,6.24c-0.07,0.05-0.11,0.13-0.11,0.22c-0.01,0.09,0.02,0.17,0.07,0.24l0.65,0.77c0.06,0.06,0.14,0.1,0.22,0.11  c0.09,0.01,0.18-0.02,0.25-0.07l7.2-6l7.2,6c0.06,0.05,0.14,0.07,0.22,0.07l0,0c0.08-0.01,0.16-0.05,0.22-0.11l0.65-0.77l0,0  L20.32,12.29z" fill="#FF5722"/></g></svg>